<mxfile host="app.diagrams.net" modified="2023-11-23T01:50:51.475Z" agent="Mozilla/5.0 (Windows NT 10.0; Win64; x64) AppleWebKit/537.36 (KHTML, like Gecko) Chrome/119.0.0.0 Safari/537.36" etag="TINwiWndZqhW2Nvy23K9" version="22.1.3" type="device">
  <diagram name="페이지-1" id="txj9b7GQbk_yAVT5GaKI">
    <mxGraphModel dx="2117" dy="534" grid="1" gridSize="10" guides="1" tooltips="1" connect="1" arrows="1" fold="1" page="1" pageScale="1" pageWidth="827" pageHeight="1169" math="0" shadow="0">
      <root>
        <mxCell id="0" />
        <mxCell id="1" parent="0" />
        <mxCell id="qVl3hC68XofdQkEQLV8r-2" value="작성자" style="whiteSpace=wrap;html=1;align=center;" parent="1" vertex="1">
          <mxGeometry x="120" y="140" width="100" height="40" as="geometry" />
        </mxCell>
        <mxCell id="qVl3hC68XofdQkEQLV8r-3" value="글 생성" style="shape=rhombus;perimeter=rhombusPerimeter;whiteSpace=wrap;html=1;align=center;" parent="1" vertex="1">
          <mxGeometry x="320" y="130" width="120" height="60" as="geometry" />
        </mxCell>
        <mxCell id="qVl3hC68XofdQkEQLV8r-4" value="나이" style="ellipse;whiteSpace=wrap;html=1;align=center;" parent="1" vertex="1">
          <mxGeometry x="90" y="30" width="100" height="40" as="geometry" />
        </mxCell>
        <mxCell id="qVl3hC68XofdQkEQLV8r-8" value="게시글" style="whiteSpace=wrap;html=1;align=center;" parent="1" vertex="1">
          <mxGeometry x="560" y="140" width="100" height="40" as="geometry" />
        </mxCell>
        <mxCell id="qVl3hC68XofdQkEQLV8r-15" value="주소" style="ellipse;whiteSpace=wrap;html=1;align=center;" parent="1" vertex="1">
          <mxGeometry x="40" y="280" width="100" height="40" as="geometry" />
        </mxCell>
        <mxCell id="qVl3hC68XofdQkEQLV8r-16" value="권한" style="ellipse;whiteSpace=wrap;html=1;align=center;" parent="1" vertex="1">
          <mxGeometry x="-70" y="260" width="100" height="40" as="geometry" />
        </mxCell>
        <mxCell id="qVl3hC68XofdQkEQLV8r-17" value="비밀번호" style="ellipse;whiteSpace=wrap;html=1;align=center;" parent="1" vertex="1">
          <mxGeometry x="-90" y="190" width="100" height="40" as="geometry" />
        </mxCell>
        <mxCell id="qVl3hC68XofdQkEQLV8r-18" value="이메일" style="ellipse;whiteSpace=wrap;html=1;align=center;" parent="1" vertex="1">
          <mxGeometry x="-90" y="140" width="100" height="40" as="geometry" />
        </mxCell>
        <mxCell id="qVl3hC68XofdQkEQLV8r-19" value="이름" style="ellipse;whiteSpace=wrap;html=1;align=center;" parent="1" vertex="1">
          <mxGeometry x="-100" y="90" width="100" height="40" as="geometry" />
        </mxCell>
        <mxCell id="qVl3hC68XofdQkEQLV8r-25" value="" style="endArrow=none;html=1;rounded=0;entryX=0;entryY=0;entryDx=0;entryDy=0;" parent="1" target="qVl3hC68XofdQkEQLV8r-2" edge="1">
          <mxGeometry relative="1" as="geometry">
            <mxPoint y="70" as="sourcePoint" />
            <mxPoint x="160" y="70" as="targetPoint" />
          </mxGeometry>
        </mxCell>
        <mxCell id="qVl3hC68XofdQkEQLV8r-28" value="작성자 번호" style="ellipse;whiteSpace=wrap;html=1;align=center;fontStyle=4;" parent="1" vertex="1">
          <mxGeometry x="-50" y="30" width="100" height="40" as="geometry" />
        </mxCell>
        <mxCell id="qVl3hC68XofdQkEQLV8r-29" value="" style="endArrow=none;html=1;rounded=0;entryX=0;entryY=0.5;entryDx=0;entryDy=0;" parent="1" target="qVl3hC68XofdQkEQLV8r-2" edge="1">
          <mxGeometry relative="1" as="geometry">
            <mxPoint x="10" y="160" as="sourcePoint" />
            <mxPoint x="110" y="170" as="targetPoint" />
          </mxGeometry>
        </mxCell>
        <mxCell id="qVl3hC68XofdQkEQLV8r-40" value="" style="endArrow=none;html=1;rounded=0;entryX=0;entryY=0.5;entryDx=0;entryDy=0;" parent="1" target="qVl3hC68XofdQkEQLV8r-2" edge="1">
          <mxGeometry relative="1" as="geometry">
            <mxPoint y="110" as="sourcePoint" />
            <mxPoint x="120" y="180" as="targetPoint" />
          </mxGeometry>
        </mxCell>
        <mxCell id="qVl3hC68XofdQkEQLV8r-41" value="" style="endArrow=none;html=1;rounded=0;entryX=0;entryY=0.5;entryDx=0;entryDy=0;" parent="1" target="qVl3hC68XofdQkEQLV8r-2" edge="1">
          <mxGeometry relative="1" as="geometry">
            <mxPoint x="10" y="209.5" as="sourcePoint" />
            <mxPoint x="120" y="209.5" as="targetPoint" />
          </mxGeometry>
        </mxCell>
        <mxCell id="qVl3hC68XofdQkEQLV8r-42" value="" style="endArrow=none;html=1;rounded=0;entryX=0;entryY=1;entryDx=0;entryDy=0;" parent="1" source="qVl3hC68XofdQkEQLV8r-16" target="qVl3hC68XofdQkEQLV8r-2" edge="1">
          <mxGeometry relative="1" as="geometry">
            <mxPoint x="70" y="259.5" as="sourcePoint" />
            <mxPoint x="180" y="210" as="targetPoint" />
          </mxGeometry>
        </mxCell>
        <mxCell id="qVl3hC68XofdQkEQLV8r-43" value="" style="endArrow=none;html=1;rounded=0;entryX=0;entryY=0.5;entryDx=0;entryDy=0;exitX=0.5;exitY=0;exitDx=0;exitDy=0;" parent="1" source="qVl3hC68XofdQkEQLV8r-15" edge="1">
          <mxGeometry relative="1" as="geometry">
            <mxPoint x="50" y="282" as="sourcePoint" />
            <mxPoint x="169" y="180" as="targetPoint" />
          </mxGeometry>
        </mxCell>
        <mxCell id="qVl3hC68XofdQkEQLV8r-46" value="" style="endArrow=none;html=1;rounded=0;entryX=0.5;entryY=0;entryDx=0;entryDy=0;" parent="1" target="qVl3hC68XofdQkEQLV8r-2" edge="1">
          <mxGeometry relative="1" as="geometry">
            <mxPoint x="140" y="70" as="sourcePoint" />
            <mxPoint x="260" y="160" as="targetPoint" />
          </mxGeometry>
        </mxCell>
        <mxCell id="qVl3hC68XofdQkEQLV8r-47" value="작성일" style="ellipse;whiteSpace=wrap;html=1;align=center;" parent="1" vertex="1">
          <mxGeometry x="560" y="270" width="100" height="40" as="geometry" />
        </mxCell>
        <mxCell id="qVl3hC68XofdQkEQLV8r-50" value="원고료" style="ellipse;whiteSpace=wrap;html=1;align=center;" parent="1" vertex="1">
          <mxGeometry x="680" y="240" width="100" height="40" as="geometry" />
        </mxCell>
        <mxCell id="qVl3hC68XofdQkEQLV8r-51" value="작성자 번호" style="ellipse;whiteSpace=wrap;html=1;align=center;" parent="1" vertex="1">
          <mxGeometry x="727" y="150" width="100" height="40" as="geometry" />
        </mxCell>
        <mxCell id="qVl3hC68XofdQkEQLV8r-53" value="제목" style="ellipse;whiteSpace=wrap;html=1;align=center;" parent="1" vertex="1">
          <mxGeometry x="670" y="50" width="100" height="40" as="geometry" />
        </mxCell>
        <mxCell id="qVl3hC68XofdQkEQLV8r-56" value="게시글 번호" style="ellipse;whiteSpace=wrap;html=1;align=center;fontStyle=4;" parent="1" vertex="1">
          <mxGeometry x="540" y="30" width="100" height="40" as="geometry" />
        </mxCell>
        <mxCell id="qVl3hC68XofdQkEQLV8r-59" value="" style="endArrow=none;html=1;rounded=0;entryX=0.5;entryY=0;entryDx=0;entryDy=0;" parent="1" target="qVl3hC68XofdQkEQLV8r-8" edge="1">
          <mxGeometry relative="1" as="geometry">
            <mxPoint x="580" y="70" as="sourcePoint" />
            <mxPoint x="740" y="70" as="targetPoint" />
          </mxGeometry>
        </mxCell>
        <mxCell id="qVl3hC68XofdQkEQLV8r-61" value="" style="endArrow=none;html=1;rounded=0;entryX=1;entryY=0;entryDx=0;entryDy=0;" parent="1" target="qVl3hC68XofdQkEQLV8r-8" edge="1">
          <mxGeometry relative="1" as="geometry">
            <mxPoint x="720" y="90" as="sourcePoint" />
            <mxPoint x="750" y="160" as="targetPoint" />
          </mxGeometry>
        </mxCell>
        <mxCell id="qVl3hC68XofdQkEQLV8r-62" value="" style="endArrow=none;html=1;rounded=0;entryX=0.5;entryY=0;entryDx=0;entryDy=0;" parent="1" target="qVl3hC68XofdQkEQLV8r-47" edge="1">
          <mxGeometry relative="1" as="geometry">
            <mxPoint x="610" y="180" as="sourcePoint" />
            <mxPoint x="640" y="250" as="targetPoint" />
          </mxGeometry>
        </mxCell>
        <mxCell id="qVl3hC68XofdQkEQLV8r-63" value="" style="endArrow=none;html=1;rounded=0;" parent="1" target="qVl3hC68XofdQkEQLV8r-50" edge="1">
          <mxGeometry relative="1" as="geometry">
            <mxPoint x="660" y="180" as="sourcePoint" />
            <mxPoint x="690" y="310" as="targetPoint" />
          </mxGeometry>
        </mxCell>
        <mxCell id="qVl3hC68XofdQkEQLV8r-64" value="" style="endArrow=none;html=1;rounded=0;entryX=0;entryY=0.5;entryDx=0;entryDy=0;" parent="1" target="qVl3hC68XofdQkEQLV8r-51" edge="1">
          <mxGeometry relative="1" as="geometry">
            <mxPoint x="660" y="160" as="sourcePoint" />
            <mxPoint x="690" y="230" as="targetPoint" />
          </mxGeometry>
        </mxCell>
        <mxCell id="qVl3hC68XofdQkEQLV8r-66" value="" style="edgeStyle=entityRelationEdgeStyle;fontSize=12;html=1;endArrow=ERzeroToOne;endFill=1;rounded=0;entryX=1;entryY=0.5;entryDx=0;entryDy=0;exitX=0;exitY=0.5;exitDx=0;exitDy=0;" parent="1" source="qVl3hC68XofdQkEQLV8r-3" target="qVl3hC68XofdQkEQLV8r-2" edge="1">
          <mxGeometry width="100" height="100" relative="1" as="geometry">
            <mxPoint x="220" y="300" as="sourcePoint" />
            <mxPoint x="320" y="200" as="targetPoint" />
          </mxGeometry>
        </mxCell>
        <mxCell id="qVl3hC68XofdQkEQLV8r-68" value="" style="edgeStyle=entityRelationEdgeStyle;fontSize=12;html=1;endArrow=ERzeroToMany;endFill=1;rounded=0;entryX=0;entryY=0.5;entryDx=0;entryDy=0;" parent="1" target="qVl3hC68XofdQkEQLV8r-8" edge="1">
          <mxGeometry width="100" height="100" relative="1" as="geometry">
            <mxPoint x="440" y="160" as="sourcePoint" />
            <mxPoint x="540" y="60" as="targetPoint" />
          </mxGeometry>
        </mxCell>
      </root>
    </mxGraphModel>
  </diagram>
</mxfile>
